HIERARCHY
ROOT Hips
{
	OFFSET -3.958830 18.904000 13.208200
	CHANNELS 6 Xposition Yposition Zposition Zrotation Yrotation Xrotation 
	JOINT LHipJoint
	{
		OFFSET 0.000000 0.000000 0.000000
		CHANNELS 3 Zrotation Yrotation Xrotation
		JOINT LeftUpLeg
		{
			OFFSET 1.800000 -1.400000 0.085000
			CHANNELS 3 Zrotation Yrotation Xrotation
			JOINT LeftLeg
			{
				OFFSET 2.215000 -6.000000 0.000000
				CHANNELS 3 Zrotation Yrotation Xrotation
				JOINT LeftFoot
				{
					OFFSET 2.500000 -6.900000 0.000000
					CHANNELS 3 Zrotation Yrotation Xrotation
					JOINT LeftToeBase
					{
						OFFSET 0.200000 -0.500000 1.950000
						CHANNELS 3 Zrotation Yrotation Xrotation
						End Site
						{
							OFFSET 0.000000 0.000000 0.000000
						}
					}
				}
			}
		}
	}
	JOINT RHipJoint
	{
		OFFSET 0.000000 0.000000 0.000000
		CHANNELS 3 Zrotation Yrotation Xrotation
		JOINT RightUpLeg
		{
			OFFSET -1.800000 -1.400000 0.085000
			CHANNELS 3 Zrotation Yrotation Xrotation
			JOINT RightLeg
			{
				OFFSET -2.215000 -6.000000 0.000000
				CHANNELS 3 Zrotation Yrotation Xrotation
				JOINT RightFoot
				{
					OFFSET -2.500000 -6.900000 0.000000
					CHANNELS 3 Zrotation Yrotation Xrotation
					JOINT RightToeBase
					{
						OFFSET -0.200000 -0.500000 1.950000
						CHANNELS 3 Zrotation Yrotation Xrotation
						End Site
						{
							OFFSET 0.000000 0.000000 0.000000
						}
					}
				}
			}
		}
	}
	JOINT LowerBack
	{
		OFFSET 0.000000 0.000000 0.000000
		CHANNELS 3 Zrotation Yrotation Xrotation
		JOINT Spine
		{
			OFFSET -0.087000 1.940000 -0.288900
			CHANNELS 3 Zrotation Yrotation Xrotation
			JOINT Spine1
			{
				OFFSET 0.000000 1.950000 0.060000
				CHANNELS 3 Zrotation Yrotation Xrotation
				JOINT Neck
				{
					OFFSET 0.000000 0.000000 0.000000
					CHANNELS 3 Zrotation Yrotation Xrotation
					JOINT Neck1
					{
						OFFSET 0.000000 1.600000 0.340000
						CHANNELS 3 Zrotation Yrotation Xrotation
						JOINT Head
						{
							OFFSET 0.000000 1.667000 -0.240000
							CHANNELS 3 Zrotation Yrotation Xrotation
							End Site
							{
								OFFSET 0.000000 0.000000 0.000000
							}
						}
					}
				}
				JOINT LeftShoulder
				{
					OFFSET 0.000000 0.000000 0.000000
					CHANNELS 3 Zrotation Yrotation Xrotation
					JOINT LeftArm
					{
						OFFSET 2.700000 1.550000 -0.730000
						CHANNELS 3 Zrotation Yrotation Xrotation
						JOINT LeftForeArm
						{
							OFFSET 5.450000 0.000000 0.000000
							CHANNELS 3 Zrotation Yrotation Xrotation
							JOINT LeftHand
							{
								OFFSET 3.450000 0.000000 0.000000
								CHANNELS 3 Zrotation Yrotation Xrotation
								JOINT LeftHandIndex1
								{
									OFFSET 0.750000 0.000000 0.000000
									CHANNELS 3 Zrotation Yrotation Xrotation
									End Site
									{
										OFFSET 0.000000 0.000000 0.000000
									}
								}
							}
						}
					}
				}
				JOINT RightShoulder
				{
					OFFSET 0.000000 0.000000 0.000000
					CHANNELS 3 Zrotation Yrotation Xrotation
					JOINT RightArm
					{
						OFFSET -2.700000 1.550000 -0.730000
						CHANNELS 3 Zrotation Yrotation Xrotation
						JOINT RightForeArm
						{
							OFFSET -5.450000 0.000000 0.000000
							CHANNELS 3 Zrotation Yrotation Xrotation
							JOINT RightHand
							{
								OFFSET -3.450000 0.000000 0.000000
								CHANNELS 3 Zrotation Yrotation Xrotation
								JOINT RightHandIndex1
								{
									OFFSET -0.750000 0.000000 0.000000
									CHANNELS 3 Zrotation Yrotation Xrotation
									End Site
									{
										OFFSET 0.000000 0.000000 0.000000
									}
								}
							}
						}
					}
				}
			}
		}
	}
}
MOTION
Frames: 8
Frame Time: 0.016667
0.140720 16.786740 -8.246880 9.105849 -1.541053 8.912416 -15.384761 9.580044 6.271251 43.474888 2.886274 -40.480285 -14.002318 14.269383 27.789390 0.144043 9.351234 1.211340 0.026230 -0.311460 -0.073200 18.865655 -8.056387 3.497795 -21.750654 8.369182 -41.863444 13.815923 -13.793008 40.554050 -0.571708 -7.022342 1.949649 -0.195060 0.403780 0.187610 -4.302716 -0.559267 -9.706081 21.295317 -13.037933 39.825399 -16.346631 -4.314408 -7.722149 5.350858 -9.594304 -4.417392 -15.697534 4.758308 26.213867 -3.744960 -0.663430 -12.406700 -16.650558 19.105017 -4.156579 -40.401532 12.885807 -11.422612 -42.004461 -74.822394 26.116554 -3.531749 3.750511 0.473470 0.129940 -0.184800 0.114470 3.788693 -12.238972 4.847898 36.089736 -10.049187 -6.687962 -168.851841 52.249630 -169.688350 1.924670 -2.192729 -0.239400 0.209630 0.232690 -0.098380 
0.184230 16.690740 -8.133420 8.195200 -1.093271 12.548421 -15.204693 9.782578 5.335168 39.588827 2.686792 -39.326510 -5.935940 10.281524 22.214594 -0.152996 7.519986 1.851756 0.041050 -0.284730 -0.092820 19.007834 -8.091724 4.072841 -23.477506 8.851279 -45.567841 16.555450 -15.247240 40.511891 -0.630546 -7.443312 1.818090 -0.133000 0.483490 0.171930 -4.734246 -0.261173 -9.420636 27.042077 -13.026652 30.132669 -17.761596 -4.816728 -6.160664 4.897948 -10.535092 -3.417778 -16.923657 4.879677 25.161774 -3.550520 -0.757520 -10.387010 -15.828523 19.972630 -5.121481 -41.925476 12.967432 -13.276144 -10.674784 -55.938087 3.426709 -3.666352 3.361696 0.418740 0.192990 -0.245240 0.143750 3.409509 -12.931647 4.676171 34.879049 -10.291632 -7.504143 -168.251742 62.897227 -170.161634 1.866552 -2.231016 -0.274380 0.260890 0.236170 -0.082910 
0.191550 16.603640 -8.034610 7.335561 -1.134394 15.250423 -15.104415 10.076095 4.549289 36.233837 2.253503 -37.623176 0.163124 7.545209 17.290394 -0.290199 6.144659 2.352165 0.080380 -0.240940 -0.045750 19.066311 -8.136554 4.510643 -23.837814 9.701528 -48.480898 17.681783 -15.942152 41.289035 -0.699986 -7.764574 1.695858 -0.082660 0.502500 0.212270 -4.940276 -0.195264 -9.178998 29.567549 -11.741052 23.460513 -17.416233 -4.443408 -5.517791 5.043657 -9.671075 -2.638067 -14.890975 4.640501 24.378759 -6.001060 1.630650 -7.916260 -15.279589 20.322936 -6.142569 -40.910580 11.869489 -11.786120 0.100062 -34.508862 -0.788712 -3.899820 3.069260 0.355000 0.266820 -0.265610 0.162660 2.414624 -13.971451 4.884320 36.561681 -7.767950 -5.436209 -141.760140 68.946922 -136.120447 2.027891 -2.143516 -0.268150 0.220900 0.200860 -0.094190 
0.186440 16.527170 -7.941650 7.040500 -1.579686 17.326766 -15.010009 10.268374 3.881602 33.097755 1.426023 -35.930223 3.419302 6.113441 15.119541 -0.369489 5.387117 2.661729 0.062930 -0.235660 -0.048320 19.128124 -8.270540 4.859064 -24.152779 10.134807 -50.917484 18.147901 -16.355939 42.399006 -0.728033 -8.123130 1.583266 -0.048180 0.585830 0.255840 -5.156362 0.078324 -8.949065 29.737513 -9.755211 17.658438 -16.481307 -3.870942 -4.336014 5.271562 -7.516012 -2.228863 -10.833012 4.148821 23.440816 -8.079560 4.400890 -3.655250 -14.262637 19.688454 -6.541388 -38.458001 10.779400 -9.382560 4.284984 -14.368033 -1.519919 -4.251875 2.820635 0.237960 0.407780 -0.326300 0.182380 1.158800 -14.983253 5.396980 38.787915 -7.097192 -3.302557 -122.242068 62.120366 -101.569119 2.085279 -1.177580 -0.275640 0.188620 0.187820 -0.088740 
0.164030 16.528500 -7.887710 7.142735 -1.650391 16.499756 -14.922997 10.897239 3.247432 28.991473 0.468247 -33.502511 6.579778 4.766136 14.296107 -0.450989 4.666443 2.947541 0.049060 -0.250830 -0.041550 19.077794 -8.689569 4.918262 -23.387441 10.199031 -49.664449 17.569896 -15.695270 42.404908 -0.706008 -8.019701 1.621747 -0.060420 0.597860 0.267790 -5.171507 -0.000129 -8.695514 28.549242 -9.405242 17.085088 -15.455361 -4.014073 -4.960281 5.150029 -6.236222 -2.233986 -8.723930 3.823988 23.989396 -8.904980 5.709150 -2.947590 -13.791594 18.575400 -6.311319 -35.817051 10.924069 -7.470205 7.607433 0.745591 -0.977892 -4.470851 2.615280 0.240180 0.430620 -0.319140 0.189320 1.055114 -14.713296 4.815233 42.207958 -5.744439 -5.121834 -119.970707 52.357800 -83.276130 1.922810 -1.384299 -0.284200 0.186020 0.180810 -0.094150 
0.171270 16.543540 -7.819550 7.034708 -1.678141 16.864874 -14.823074 11.029882 2.881846 26.400004 -0.208446 -32.046293 5.153605 4.787226 15.695879 -0.516977 4.534513 3.024200 0.011750 -0.280670 -0.080460 19.132149 -9.014323 4.938813 -22.951260 10.148048 -49.235614 17.369346 -15.150303 41.890390 -0.640088 -7.933626 1.641255 -0.049760 0.678540 0.284280 -5.387789 0.465253 -8.382706 29.332984 -9.111576 13.961780 -15.509821 -4.255999 -4.207782 4.232739 -6.437317 -2.200381 -8.813843 4.427978 22.441865 -8.598460 6.488050 -1.282600 -10.663283 19.005339 -6.109239 -35.385442 11.068687 -6.837737 10.557568 11.964102 0.402275 -4.735518 2.517323 0.183550 0.504870 -0.372620 0.195650 -0.323573 -14.714309 4.534423 45.392219 -3.700918 -4.971155 -122.901032 41.719874 -72.047265 1.864898 -1.871023 -0.309120 0.194550 0.206340 -0.080130 
0.181330 16.614690 -7.773290 6.365976 -1.313987 16.292088 -14.785912 11.357669 2.850244 24.341771 -0.577369 -31.777004 3.178262 5.516206 19.585546 -0.460984 4.744948 2.938206 -0.018780 -0.297890 -0.136930 19.073736 -9.317369 4.752160 -20.788055 10.208632 -46.769850 16.241612 -13.562425 39.865340 -0.509937 -7.328048 1.862449 -0.091320 0.684150 0.291390 -5.336546 0.429191 -8.250218 29.735429 -9.501799 14.601766 -14.850413 -4.136488 -6.799127 3.324342 -6.832006 -2.371355 -9.402442 4.714723 22.067831 -8.256220 7.123460 -0.581750 -7.268023 20.624154 -5.899354 -34.429557 13.218207 -7.429514 11.134886 13.266508 0.642013 -4.770335 2.502225 0.168930 0.500490 -0.371890 0.207840 -2.359511 -14.833249 4.335585 46.794726 -1.443766 -3.895918 -126.484620 30.087159 -56.120489 1.897865 -2.206981 -0.281790 0.163140 0.213630 -0.052890 
0.167250 16.712720 -7.735860 5.728417 -0.904411 15.790775 -14.746041 11.420105 3.009985 23.361976 -0.940223 -31.310212 -1.046889 6.950612 22.098057 -0.413645 5.288657 2.748092 -0.062010 -0.326610 -0.210800 19.051209 -9.627783 4.423574 -17.826200 10.061363 -43.969781 13.993371 -11.579952 37.668948 -0.321547 -6.618037 2.126334 -0.101550 0.766040 0.306300 -5.362850 0.642500 -8.096847 29.141172 -9.247327 13.909305 -13.846234 -4.163762 -6.539403 2.094670 -6.816517 -2.817333 -9.441752 4.849120 21.470461 -6.976730 6.879200 1.230970 -4.856763 20.070139 -4.567628 -32.537771 15.207868 -7.313961 7.684724 13.414973 0.035275 -4.827467 2.487504 0.104150 0.565690 -0.429510 0.215600 -2.298002 -13.953618 3.697836 45.626638 0.266676 -2.704695 -132.022016 22.126424 -46.681007 1.884277 -2.429051 -0.279670 0.165890 0.252080 -0.020550 
